<svg width="110" height="110" viewBox="0 0 110 110" fill="none" xmlns="http://www.w3.org/2000/svg">
<path d="M108.103 55V104.31H73.9655V51.2069L108.103 55Z" fill="#86B4CC"/>
<path d="M36.0345 51.2069V104.31H1.89655V55L36.0345 51.2069Z" fill="#86B4CC"/>
<path d="M32.2414 51.2069H77.7586V104.31H32.2414V51.2069Z" fill="#A1C8D3"/>
<path d="M49.3103 75.8621H60.6897C61.7371 75.8621 62.5862 76.7112 62.5862 77.7586V100.517H47.4138V77.7586C47.4138 76.7112 48.2629 75.8621 49.3103 75.8621Z" fill="#567580"/>
<path d="M49.3103 68.2759C48.2629 68.2759 47.4138 67.4267 47.4138 66.3793V62.5862C47.4138 61.5388 48.2629 60.6897 49.3103 60.6897C50.3578 60.6897 51.2069 61.5388 51.2069 62.5862V66.3793C51.2069 67.4267 50.3578 68.2759 49.3103 68.2759Z" fill="#464F5E"/>
<path d="M22.7586 70.1724C21.7112 70.1724 20.8621 69.3233 20.8621 68.2759V64.4828C20.8621 63.4353 21.7112 62.5862 22.7586 62.5862C23.8061 62.5862 24.6552 63.4353 24.6552 64.4828V68.2759C24.6552 69.3233 23.8061 70.1724 22.7586 70.1724Z" fill="#464F5E"/>
<path d="M11.3793 70.1724C10.3319 70.1724 9.48275 69.3233 9.48275 68.2759V64.4828C9.48275 63.4353 10.3319 62.5862 11.3793 62.5862C12.4267 62.5862 13.2759 63.4353 13.2759 64.4828V68.2759C13.2759 69.3233 12.4267 70.1724 11.3793 70.1724Z" fill="#464F5E"/>
<path d="M22.7586 81.5517C21.7112 81.5517 20.8621 80.7026 20.8621 79.6552V75.8621C20.8621 74.8146 21.7112 73.9655 22.7586 73.9655C23.8061 73.9655 24.6552 74.8146 24.6552 75.8621V79.6552C24.6552 80.7026 23.8061 81.5517 22.7586 81.5517Z" fill="#464F5E"/>
<path d="M11.3793 81.5517C10.3319 81.5517 9.48275 80.7026 9.48275 79.6552V75.8621C9.48275 74.8146 10.3319 73.9655 11.3793 73.9655C12.4267 73.9655 13.2759 74.8146 13.2759 75.8621V79.6552C13.2759 80.7026 12.4267 81.5517 11.3793 81.5517Z" fill="#464F5E"/>
<path d="M22.7586 92.931C21.7112 92.931 20.8621 92.0819 20.8621 91.0345V87.2414C20.8621 86.1939 21.7112 85.3448 22.7586 85.3448C23.8061 85.3448 24.6552 86.1939 24.6552 87.2414V91.0345C24.6552 92.0819 23.8061 92.931 22.7586 92.931Z" fill="#464F5E"/>
<path d="M11.3793 92.931C10.3319 92.931 9.48275 92.0819 9.48275 91.0345V87.2414C9.48275 86.1939 10.3319 85.3448 11.3793 85.3448C12.4267 85.3448 13.2759 86.1939 13.2759 87.2414V91.0345C13.2759 92.0819 12.4267 92.931 11.3793 92.931Z" fill="#464F5E"/>
<path d="M98.6207 70.1724C97.5733 70.1724 96.7241 69.3233 96.7241 68.2759V64.4828C96.7241 63.4353 97.5733 62.5862 98.6207 62.5862C99.6681 62.5862 100.517 63.4353 100.517 64.4828V68.2759C100.517 69.3233 99.6681 70.1724 98.6207 70.1724Z" fill="#464F5E"/>
<path d="M87.2414 70.1724C86.1939 70.1724 85.3448 69.3233 85.3448 68.2759V64.4828C85.3448 63.4353 86.1939 62.5862 87.2414 62.5862C88.2888 62.5862 89.1379 63.4353 89.1379 64.4828V68.2759C89.1379 69.3233 88.2888 70.1724 87.2414 70.1724Z" fill="#464F5E"/>
<path d="M98.6207 81.5517C97.5733 81.5517 96.7241 80.7026 96.7241 79.6552V75.8621C96.7241 74.8146 97.5733 73.9655 98.6207 73.9655C99.6681 73.9655 100.517 74.8146 100.517 75.8621V79.6552C100.517 80.7026 99.6681 81.5517 98.6207 81.5517Z" fill="#464F5E"/>
<path d="M87.2414 81.5517C86.1939 81.5517 85.3448 80.7026 85.3448 79.6552V75.8621C85.3448 74.8146 86.1939 73.9655 87.2414 73.9655C88.2888 73.9655 89.1379 74.8146 89.1379 75.8621V79.6552C89.1379 80.7026 88.2888 81.5517 87.2414 81.5517Z" fill="#464F5E"/>
<path d="M98.6207 92.931C97.5733 92.931 96.7241 92.0819 96.7241 91.0345V87.2414C96.7241 86.1939 97.5733 85.3448 98.6207 85.3448C99.6681 85.3448 100.517 86.1939 100.517 87.2414V91.0345C100.517 92.0819 99.6681 92.931 98.6207 92.931Z" fill="#464F5E"/>
<path d="M87.2414 92.931C86.1939 92.931 85.3448 92.0819 85.3448 91.0345V87.2414C85.3448 86.1939 86.1939 85.3448 87.2414 85.3448C88.2888 85.3448 89.1379 86.1939 89.1379 87.2414V91.0345C89.1379 92.0819 88.2888 92.931 87.2414 92.931Z" fill="#464F5E"/>
<path d="M60.6896 68.2759C59.6422 68.2759 58.7931 67.4267 58.7931 66.3793V62.5862C58.7931 61.5388 59.6422 60.6897 60.6896 60.6897C61.7371 60.6897 62.5862 61.5388 62.5862 62.5862V66.3793C62.5862 67.4267 61.7371 68.2759 60.6896 68.2759Z" fill="#464F5E"/>
<path d="M108.103 100.517H1.89655C0.849115 100.517 0 101.366 0 102.414V106.207C0 107.254 0.849115 108.103 1.89655 108.103H28.4483C28.4483 109.151 29.2974 110 30.3448 110H79.6552C80.7026 110 81.5517 109.151 81.5517 108.103H108.103C109.151 108.103 110 107.254 110 106.207V102.414C110 101.366 109.151 100.517 108.103 100.517Z" fill="#EDC100"/>
<path d="M81.5517 100.517V108.103C81.5517 109.151 80.7026 110 79.6552 110H30.3448C29.2974 110 28.4483 109.151 28.4483 108.103V100.517H81.5517Z" fill="#F8E8AB"/>
<path d="M72.069 8.76207V32.2414H37.931V8.76207L54.5259 15.3469C54.832 15.4589 55.168 15.4589 55.4741 15.3469L72.069 8.76207Z" fill="#393F4B"/>
<path d="M103.457 45.7259C102.816 44.4368 101.501 43.6214 100.062 43.6207H85.3448V39.8276L75.0845 29.5672C74.3711 28.8513 73.4021 28.4487 72.3914 28.4483H35.9207C34.7916 28.4424 33.7195 28.9437 33 29.8138L24.6552 39.8276V43.6207H9.93793C8.49855 43.6214 7.18362 44.4368 6.5431 45.7259L1.89655 55H108.103L103.457 45.7259Z" fill="#4397D5"/>
<path d="M85.3448 39.8276V45.5172C85.3448 46.5647 84.4957 47.4138 83.4483 47.4138H26.5517C25.5043 47.4138 24.6552 46.5647 24.6552 45.5172V39.8276H85.3448Z" fill="#2B5781"/>
<path d="M28.4483 47.4138H81.5517V55H28.4483V47.4138Z" fill="#3180BC"/>
<path d="M81.5517 8.53456C81.5757 9.40181 80.991 10.1681 80.1483 10.3742L77.7586 11.019L72.069 12.5552L55.4741 17.0121C55.1626 17.088 54.8374 17.088 54.5259 17.0121L37.931 12.5552L29.8517 10.3742C29.008 10.1627 28.4162 9.40441 28.4162 8.53456C28.4162 7.66471 29.008 6.90637 29.8517 6.6949L54.5259 0.0569697C54.8374 -0.0188678 55.1626 -0.0188678 55.4741 0.0569697L77.7586 6.05007L80.1483 6.6949C80.991 6.90097 81.5757 7.6673 81.5517 8.53456Z" fill="#464F5E"/>
<path d="M82.9741 21.9052C82.6252 22.435 82.0344 22.7553 81.4 22.7586C81.0271 22.763 80.6623 22.6502 80.3569 22.4362C78.7315 21.3647 77.7548 19.5468 77.7586 17.6V11.019L80.1483 10.3741C80.991 10.1681 81.5757 9.40174 81.5517 8.53448V17.6C81.552 18.2799 81.8941 18.9142 82.4621 19.2879C82.8801 19.5646 83.1696 19.9974 83.2659 20.4894C83.3621 20.9813 83.257 21.4913 82.9741 21.9052Z" fill="#EDC100"/>
</svg>
